<svg width="325" height="401" viewBox="0 0 325 401" fill="none" xmlns="http://www.w3.org/2000/svg">
<path d="M176.518 211.213L174.621 229.354L164.25 229.654V213.828L176.518 211.213Z" fill="#ED9DA0"/>
<path d="M213.973 311.53H208.411V394.462H213.973V311.53Z" fill="#171717"/>
<path d="M191.727 311.53H186.165V394.462H191.727V311.53Z" fill="#171717"/>
<path d="M157.049 311.53H151.487V394.462H157.049V311.53Z" fill="#171717"/>
<path d="M146.579 311.53H141.018V394.462H146.579V311.53Z" fill="#171717"/>
<path d="M216.917 310.326L224.485 274.093C224.815 272.517 224.788 270.895 224.409 269.328C224.029 267.761 223.303 266.283 222.277 264.986C221.251 263.689 219.946 262.6 218.444 261.787C216.942 260.975 215.275 260.456 213.546 260.263L173.077 255.741C173.077 255.741 167.515 297.66 167.515 295.549C167.515 293.437 112.39 300.826 133.001 311.381C153.611 321.937 209.229 318.916 216.917 310.326Z" fill="#171717"/>
<path d="M126.768 372.159L119.915 378.476L110.45 382.989L111.429 390.811L129.377 389.006L131.662 384.794L131.009 381.184L132.314 375.468L126.768 372.159Z" fill="#ED9DA0"/>
<path d="M112.736 387.802L112.176 381.165L92.8287 389.607C92.8287 389.607 91.3307 393.518 95.9959 394.12C100.661 394.721 131.664 394.721 131.664 393.217C131.664 391.713 132.512 384.012 132.512 384.012L113.715 389.006L112.736 387.803L112.736 387.802Z" fill="#1F1F1F"/>
<path d="M110.555 329.921L106.523 338.045L99.3599 345.317L103.238 352.333L119.377 344.87L119.925 340.189L117.947 337.015L117.008 331.239L110.555 329.921Z" fill="#ED9DA0"/>
<path d="M103.322 349.093L100.286 343.054L85.3477 357.185C85.3477 357.185 85.4229 361.332 90.0233 360.396C94.6237 359.46 123.68 349.493 123.11 348.083C122.541 346.674 120.422 339.184 120.422 339.184L104.695 349.908L103.322 349.095L103.322 349.093Z" fill="#1F1F1F"/>
<path d="M199.415 286.952C199.415 286.952 206.612 304.141 201.378 311.078C196.143 318.014 171.605 321.934 171.605 321.934L161.463 330.68L134.637 378.326L118.933 375.011L141.179 326.156C141.179 326.156 154.265 306.554 159.173 303.84C164.081 301.126 173.218 290.935 173.218 290.935L199.413 286.952H199.415Z" fill="#1F1F1F"/>
<path d="M171.583 294.966L159.983 291.065C159.983 291.065 131.817 268.979 120.027 289.321C108.236 309.664 104.722 330.966 104.722 330.966L120.276 337.92L134.5 301.729L179.94 320.435L171.582 294.966H171.583Z" fill="#1F1F1F"/>
<path d="M106.181 306.365C103.072 309.773 102.458 314.014 104.811 315.838C107.164 317.662 111.591 316.378 114.701 312.969C115.964 311.623 116.859 310.017 117.31 308.287L130.289 293.696L124.016 288.98L110.739 303.193C108.967 303.9 107.404 304.987 106.181 306.365Z" fill="#ED9DA0"/>
<path d="M159.011 222.867H179.369L194.344 232.216L193.032 269.009C193.032 269.009 190.296 278.248 199.573 286.802C205.135 291.928 203.171 294.944 203.171 294.944L170.129 297.357L150.334 292.079L157.531 275.493L156.223 270.366C156.223 270.366 142.809 261.62 145.1 252.573C147.39 243.525 150.334 224.828 150.334 224.828L159.011 222.867Z" fill="#CD2228"/>
<path d="M137.15 271.501L148.31 225.999C148.31 225.999 155.624 223.088 159.365 228.884C163.107 234.68 160.822 257.963 160.822 257.963L145.775 285.133L119.891 306.226L112.491 299.77L137.149 271.502L137.15 271.501Z" fill="#CD2228"/>
<path d="M166.007 217.955C174.086 217.955 180.635 211.918 180.635 204.471C180.635 197.024 174.086 190.986 166.007 190.986C157.928 190.986 151.378 197.024 151.378 204.471C151.378 211.918 157.928 217.955 166.007 217.955Z" fill="#ED9DA0"/>
<path d="M167.174 186.342C166.751 186.57 166.184 186.225 166.049 185.791C165.963 185.343 166.025 184.882 166.228 184.467L167.018 182.312C167.577 180.784 168.172 179.202 169.384 178.039C171.21 176.284 174.121 175.837 176.738 176.161C180.1 176.577 183.417 178.255 184.98 181.029C186.543 183.804 185.878 187.676 183.053 189.406C187.079 193.659 188.482 198.399 188.262 204.039C188.043 209.679 181.374 214.87 177.024 218.844C176.053 218.302 175.172 215.759 175.704 214.835C176.237 213.91 175.473 212.841 176.134 211.99C176.796 211.139 177.35 212.494 176.68 211.648C176.258 211.114 177.905 209.887 177.278 209.567C174.242 208.023 173.236 204.536 171.326 201.867C170.161 200.26 168.626 198.91 166.829 197.914C165.032 196.918 163.019 196.3 160.933 196.105C158.626 195.833 156.29 196.325 154.339 197.492C152.46 198.719 151.243 200.911 151.677 202.996C151.11 202.466 150.682 201.823 150.426 201.117C150.17 200.411 150.092 199.66 150.198 198.922C150.305 198.184 150.592 197.478 151.04 196.858C151.487 196.238 152.082 195.72 152.78 195.345C152.372 194.049 152.326 192.679 152.648 191.363C152.969 190.047 153.647 188.827 154.619 187.818C156.579 185.826 164.53 186.163 167.391 186.689" fill="#1F1F1F"/>
<path d="M167.618 196.184C171.408 196.561 174.144 199.587 176.455 202.381C177.786 203.992 179.182 205.771 179.148 207.796C179.115 209.843 177.629 211.6 176.92 213.54C176.366 215.14 176.33 216.854 176.815 218.473C177.3 220.092 178.286 221.546 179.652 222.657C178.276 222.848 176.874 222.547 175.731 221.816C174.588 221.086 173.791 219.98 173.503 218.726C172.955 215.791 175.37 212.954 175.084 209.985C174.832 207.371 172.595 205.357 170.695 203.402C168.795 201.446 167.009 198.851 167.884 196.352" fill="#1F1F1F"/>
<path d="M44.6945 284.498L47.7461 299.311C47.7805 299.476 47.8611 299.632 47.9792 299.761L84.9913 340.426C85.1381 340.587 85.3346 340.698 85.5483 340.74C85.7619 340.783 85.9799 340.755 86.1658 340.66C86.3517 340.566 86.4945 340.412 86.5703 340.223C86.6462 340.033 86.6505 339.821 86.5827 339.62L80.1313 320.703C80.0884 320.578 80.0184 320.461 79.9261 320.361L46.3131 283.799C46.1728 283.647 45.9873 283.54 45.7847 283.494C45.5822 283.448 45.3737 283.466 45.1908 283.545C45.0079 283.624 44.8605 283.76 44.771 283.932C44.6815 284.104 44.6545 284.302 44.6945 284.498Z" fill="#1F1F1F"/>
<path d="M46.5025 285.18L48.9051 297.975L82.2127 335.231L79.0951 320.923L46.5025 285.18Z" fill="#CD2228"/>
<path d="M142.689 322.194C142.923 323.95 90.464 341.861 89.7192 341.535C88.9732 341.049 88.2768 340.494 87.6411 339.879C86.6822 339.02 85.763 338.146 85.763 338.146L79.8403 320.515L129.935 298.831C129.935 298.831 137.925 312.619 141.256 319.057C141.834 320.063 142.313 321.113 142.689 322.194Z" fill="#1F1F1F"/>
<path opacity="0.1" d="M87.8112 320.276L93.6324 335.123L117.414 326.031L110.534 311.585L87.8112 320.276Z" fill="#1F1F1F"/>
<path opacity="0.1" d="M117.509 313.703L117.354 313.73L121.001 319.736L134.274 314.648L131.314 308.412L117.509 313.703Z" fill="#1F1F1F"/>
<path opacity="0.1" d="M146.155 320.381C146.367 322.208 90.0322 341.779 89.2447 341.451C88.4637 340.961 87.7328 340.394 87.0642 339.761L144.694 317.133C145.288 318.172 145.778 319.26 146.155 320.381Z" fill="black"/>
<path d="M138.898 310.573C135.437 313.679 134.37 317.843 136.514 319.873C138.659 321.903 143.203 321.031 146.665 317.923C148.066 316.699 149.129 315.184 149.765 313.504L164.251 300.172L158.517 294.906L143.775 307.833C141.935 308.374 140.263 309.314 138.898 310.573Z" fill="#ED9DA0"/>
<path d="M173.242 277L187.964 232.366C187.964 232.366 195.489 229.953 198.76 235.985C202.032 242.017 197.916 265.086 197.916 265.086L180.767 291.174L153.286 310.475L146.415 303.539L173.242 277Z" fill="#CD2228"/>
<path d="M289.86 119.299C287.369 119.299 284.935 118.639 282.864 117.402C280.793 116.165 279.179 114.407 278.226 112.35C277.273 110.293 277.024 108.03 277.51 105.846C277.995 103.663 279.195 101.657 280.956 100.083C282.717 98.5084 284.961 97.4363 287.403 97.0019C289.846 96.5676 292.378 96.7905 294.679 97.6425C296.98 98.4945 298.946 99.9374 300.33 101.789C301.714 103.64 302.452 105.816 302.452 108.043C302.452 111.028 301.125 113.891 298.764 116.002C296.402 118.113 293.2 119.299 289.86 119.299ZM289.86 97.424C287.511 97.424 285.214 98.0468 283.261 99.2136C281.307 100.38 279.785 102.039 278.886 103.979C277.987 105.919 277.752 108.054 278.21 110.114C278.668 112.174 279.8 114.066 281.461 115.551C283.122 117.036 285.238 118.047 287.543 118.457C289.847 118.867 292.235 118.656 294.405 117.853C296.576 117.049 298.431 115.688 299.736 113.942C301.041 112.196 301.738 110.143 301.738 108.043C301.738 106.648 301.431 105.267 300.835 103.978C300.238 102.69 299.363 101.519 298.26 100.533C297.157 99.5464 295.847 98.7641 294.406 98.2303C292.965 97.6965 291.42 97.4218 289.86 97.4218V97.424Z" fill="#090814"/>
<path d="M294.688 106.964H291.067V103.727C291.067 103.441 290.94 103.166 290.714 102.964C290.487 102.761 290.18 102.648 289.86 102.648C289.54 102.648 289.233 102.761 289.007 102.964C288.781 103.166 288.654 103.441 288.654 103.727V106.964H285.032C284.712 106.964 284.405 107.077 284.179 107.28C283.953 107.482 283.826 107.756 283.826 108.043C283.826 108.329 283.953 108.603 284.179 108.805C284.405 109.008 284.712 109.121 285.032 109.121H288.654V112.358C288.654 112.645 288.781 112.919 289.007 113.121C289.233 113.324 289.54 113.437 289.86 113.437C290.18 113.437 290.487 113.324 290.714 113.121C290.94 112.919 291.067 112.645 291.067 112.358V109.121H294.688C295.008 109.121 295.315 109.008 295.541 108.805C295.767 108.603 295.894 108.329 295.894 108.043C295.894 107.756 295.767 107.482 295.541 107.28C295.315 107.077 295.008 106.964 294.688 106.964Z" fill="#CD2228"/>
<path d="M231.759 10.0057H112.615C112.029 10.0057 111.467 10.2137 111.053 10.5839C110.639 10.954 110.407 11.4561 110.407 11.9795V103.057C110.407 103.58 110.639 104.082 111.053 104.452C111.467 104.823 112.029 105.03 112.615 105.03H231.759C232.345 105.03 232.906 104.823 233.32 104.452C233.734 104.082 233.967 103.58 233.967 103.057V11.9795C233.967 11.4561 233.734 10.954 233.32 10.5839C232.906 10.2137 232.345 10.0057 231.759 10.0057ZM233.084 103.057C233.084 103.212 233.05 103.366 232.983 103.51C232.916 103.654 232.819 103.784 232.696 103.894C232.573 104.004 232.427 104.091 232.266 104.151C232.105 104.21 231.933 104.241 231.759 104.241H112.615C112.441 104.241 112.268 104.21 112.108 104.151C111.947 104.091 111.801 104.004 111.678 103.894C111.555 103.784 111.457 103.654 111.391 103.51C111.324 103.366 111.29 103.212 111.29 103.057V11.9795C111.29 11.6655 111.429 11.3642 111.678 11.1421C111.926 10.92 112.263 10.7953 112.615 10.7953H231.759C232.11 10.7953 232.447 10.92 232.696 11.1421C232.944 11.3642 233.084 11.6655 233.084 11.9795V103.057Z" fill="#E6E6E6"/>
<path d="M140.116 88.8345C140.116 88.9749 140.112 89.1165 140.104 89.2518C139.985 91.308 138.987 93.2449 137.317 94.6627C135.647 96.0805 133.432 96.871 131.129 96.871C128.825 96.871 126.61 96.0805 124.94 94.6627C123.27 93.2449 122.272 91.308 122.154 89.2518C122.145 89.1153 122.141 88.9749 122.141 88.8345C122.131 87.7738 122.356 86.7218 122.803 85.7392C123.251 84.7567 123.911 83.863 124.746 83.1098C125.582 82.3565 126.576 81.7587 127.671 81.3507C128.767 80.9427 129.942 80.7327 131.128 80.7327C132.315 80.7327 133.49 80.9427 134.585 81.3507C135.68 81.7587 136.675 82.3565 137.51 83.1098C138.346 83.863 139.006 84.7567 139.453 85.7392C139.9 86.7218 140.126 87.7738 140.116 88.8345H140.116Z" fill="#CD2228"/>
<path d="M222.502 83.4771H151.883C151.486 83.4771 151.105 83.6182 150.824 83.8693C150.543 84.1205 150.385 84.4612 150.385 84.8164C150.385 85.1716 150.543 85.5123 150.824 85.7635C151.105 86.0147 151.486 86.1558 151.883 86.1558H222.502C222.899 86.1558 223.28 86.0147 223.561 85.7635C223.842 85.5123 224 85.1716 224 84.8164C224 84.4612 223.842 84.1205 223.561 83.8693C223.28 83.6182 222.899 83.4771 222.502 83.4771Z" fill="#CD2228"/>
<path d="M182.269 91.5127H151.883C151.491 91.5199 151.118 91.664 150.844 91.914C150.57 92.164 150.417 92.5001 150.417 92.8501C150.417 93.2001 150.57 93.5362 150.844 93.7862C151.118 94.0363 151.491 94.1803 151.883 94.1875H182.269C182.468 94.1912 182.666 94.1593 182.851 94.0937C183.036 94.0281 183.205 93.9302 183.347 93.8057C183.489 93.6811 183.602 93.5325 183.679 93.3684C183.757 93.2043 183.796 93.0281 183.796 92.8501C183.796 92.6721 183.757 92.496 183.679 92.3319C183.602 92.1678 183.489 92.0191 183.347 91.8946C183.205 91.77 183.036 91.6721 182.851 91.6065C182.666 91.541 182.468 91.5091 182.269 91.5127Z" fill="#CD2228"/>
<path d="M263.164 21.8795H137.642V74.3653H263.164V21.8795Z" fill="#171717"/>
<path d="M260.066 74.0174H140.922C140.112 74.0165 139.337 73.7287 138.764 73.2171C138.192 72.7055 137.87 72.0119 137.87 71.2885V24.5476C137.87 23.8242 138.192 23.1307 138.764 22.6192C139.337 22.1077 140.112 21.82 140.922 21.8192H260.066C260.875 21.8201 261.651 22.1078 262.223 22.6193C262.795 23.1308 263.117 23.8243 263.118 24.5476V71.2885C263.117 72.0119 262.795 72.7055 262.223 73.2171C261.651 73.7287 260.875 74.0165 260.066 74.0174ZM140.922 22.7762C140.397 22.7768 139.893 22.9636 139.522 23.2955C139.15 23.6275 138.941 24.0776 138.941 24.547V71.2885C138.941 71.758 139.15 72.2082 139.521 72.5403C139.893 72.8724 140.396 73.0592 140.922 73.0598H260.066C260.591 73.0592 261.095 72.8724 261.466 72.5403C261.838 72.2082 262.046 71.758 262.047 71.2885V24.5476C262.046 24.0781 261.837 23.6281 261.466 23.2961C261.095 22.9642 260.591 22.7774 260.066 22.7768L140.922 22.7762Z" fill="#090814"/>
<path d="M165.184 38.8678C164.787 38.8678 164.406 39.0089 164.125 39.26C163.844 39.5111 163.686 39.8517 163.686 40.2069C163.686 40.562 163.844 40.9026 164.125 41.1538C164.406 41.4049 164.787 41.546 165.184 41.546H235.801C236.198 41.546 236.579 41.4049 236.86 41.1538C237.141 40.9026 237.299 40.562 237.299 40.2069C237.299 39.8517 237.141 39.5111 236.86 39.26C236.579 39.0089 236.198 38.8678 235.801 38.8678H165.184Z" fill="#CD2228"/>
<path d="M165.184 46.6266C164.787 46.6266 164.406 46.7677 164.125 47.0188C163.844 47.2699 163.686 47.6105 163.686 47.9657C163.686 48.3208 163.844 48.6614 164.125 48.9126C164.406 49.1637 164.787 49.3048 165.184 49.3048H235.801C236.198 49.3048 236.579 49.1637 236.86 48.9126C237.141 48.6614 237.299 48.3208 237.299 47.9657C237.299 47.6105 237.141 47.2699 236.86 47.0188C236.579 46.7677 236.198 46.6266 235.801 46.6266H165.184Z" fill="#CD2228"/>
<path d="M165.184 54.2911C164.787 54.2911 164.406 54.4322 164.125 54.6834C163.844 54.9345 163.686 55.2751 163.686 55.6302C163.686 55.9854 163.844 56.326 164.125 56.5771C164.406 56.8282 164.787 56.9693 165.184 56.9693H195.57C195.968 56.9693 196.349 56.8282 196.63 56.5771C196.911 56.326 197.068 55.9854 197.068 55.6302C197.068 55.2751 196.911 54.9345 196.63 54.6834C196.349 54.4322 195.968 54.2911 195.57 54.2911H165.184Z" fill="#CD2228"/>
<path d="M279.709 93.8203L267.743 78.7235L271.617 79.4454C271.756 79.4712 271.901 79.4467 272.02 79.377C272.138 79.3074 272.221 79.1984 272.25 79.074C272.279 78.9497 272.252 78.8201 272.174 78.7139C272.096 78.6076 271.974 78.5334 271.835 78.5075L266.062 77.436L265.283 82.6604C265.264 82.7864 265.302 82.9138 265.389 83.0147C265.475 83.1156 265.603 83.1817 265.744 83.1984C265.884 83.2152 266.027 83.1812 266.14 83.104C266.253 83.0268 266.327 82.9127 266.345 82.7867L266.868 79.2784L278.835 94.3775C278.919 94.4769 279.043 94.5431 279.181 94.5622C279.318 94.5813 279.459 94.5518 279.573 94.4798C279.686 94.4079 279.764 94.2992 279.789 94.1768C279.815 94.0544 279.786 93.928 279.709 93.8243V93.8203Z" fill="#090814"/>
<path d="M20.3349 140.85H79.1867C79.8368 140.851 80.4601 141.082 80.9198 141.494C81.3795 141.906 81.6381 142.464 81.6388 143.046V197.92C81.6381 198.502 81.3795 199.06 80.9198 199.471C80.4601 199.883 79.8368 200.115 79.1867 200.115H20.3349C19.6848 200.115 19.0615 199.883 18.6018 199.471C18.1421 199.06 17.8835 198.502 17.8828 197.92V143.046C17.8835 142.464 18.1421 141.906 18.6018 141.494C19.0615 141.082 19.6848 140.851 20.3349 140.85ZM79.1867 199.237C79.5768 199.237 79.9508 199.098 80.2267 198.851C80.5026 198.604 80.6577 198.269 80.6581 197.92V143.046C80.6577 142.696 80.5026 142.362 80.2267 142.115C79.9508 141.868 79.5768 141.729 79.1867 141.728H20.3349C19.9448 141.729 19.5708 141.868 19.2949 142.115C19.019 142.362 18.8639 142.696 18.8635 143.046V197.92C18.8639 198.269 19.019 198.604 19.2949 198.851C19.5708 199.098 19.9448 199.237 20.3349 199.237H79.1867Z" fill="#090814"/>
<path d="M66.6466 188.799C67.0882 188.799 67.5117 188.642 67.824 188.362C68.1363 188.082 68.3117 187.703 68.3117 187.308C68.3117 186.913 68.1363 186.533 67.824 186.254C67.5117 185.974 67.0882 185.817 66.6466 185.817H32.8751C32.4335 185.817 32.0099 185.974 31.6977 186.254C31.3854 186.533 31.21 186.913 31.21 187.308C31.21 187.703 31.3854 188.082 31.6977 188.362C32.0099 188.642 32.4335 188.799 32.8751 188.799H66.6466Z" fill="#CD2228"/>
<path d="M66.6466 180.018C67.0882 180.018 67.5117 179.861 67.824 179.581C68.1363 179.301 68.3117 178.922 68.3117 178.527C68.3117 178.132 68.1363 177.752 67.824 177.473C67.5117 177.193 67.0882 177.036 66.6466 177.036H32.8751C32.4335 177.036 32.0099 177.193 31.6977 177.473C31.3854 177.752 31.21 178.132 31.21 178.527C31.21 178.922 31.3854 179.301 31.6977 179.581C32.0099 179.861 32.4335 180.018 32.8751 180.018H66.6466Z" fill="#CD2228"/>
<path d="M49.7607 152.166C51.8333 152.166 53.8594 152.717 55.5827 153.747C57.3061 154.778 58.6492 156.244 59.4424 157.958C60.2356 159.672 60.4431 161.559 60.0387 163.379C59.6344 165.199 58.6363 166.871 57.1708 168.183C55.7052 169.495 53.8379 170.388 51.8051 170.75C49.7723 171.112 47.6653 170.927 45.7504 170.216C43.8355 169.506 42.1988 168.304 41.0474 166.761C39.8959 165.218 39.2813 163.404 39.2813 161.548C39.2812 159.06 40.3853 156.674 42.3506 154.914C44.3159 153.155 46.9814 152.166 49.7607 152.166Z" fill="#CD2228"/>
</svg>
